<?xml version="1.0" encoding="UTF-8"?>
<svg version="1.1" xmlns="http://www.w3.org/2000/svg" width="320" height="320">
<path d="M0 0 C105.6 0 211.2 0 320 0 C320 105.6 320 211.2 320 320 C214.4 320 108.8 320 0 320 C0 214.4 0 108.8 0 0 Z " fill="#FEFEFE" transform="translate(0,0)"/>
<path d="M0 0 C2.56042241 0.0602338 5.12098019 0.11497949 7.68164062 0.1640625 C13.93655963 0.2958903 20.18640199 0.49627972 26.4375 0.75 C24.5551789 4.69012637 22.10254112 8.07323047 19.5 11.5625 C18.49731026 12.91790545 17.49470844 14.27337594 16.4921875 15.62890625 C15.72600098 16.66168701 15.72600098 16.66168701 14.94433594 17.71533203 C12.65896073 20.80125506 10.39263132 23.90102964 8.125 27 C5.12061344 31.10048647 2.10983273 35.19614462 -0.91015625 39.28515625 C-7.42723651 48.11088016 -13.91082409 56.95746616 -20.30029297 65.8762207 C-20.80189941 66.57448975 -21.30350586 67.27275879 -21.8203125 67.9921875 C-22.28727539 68.64670898 -22.75423828 69.30123047 -23.23535156 69.97558594 C-24.5625 71.75 -24.5625 71.75 -26.9921875 74.4453125 C-28.80403019 76.63015148 -28.80403019 76.63015148 -28.52734375 79.25390625 C-27.40992413 82.14472056 -26.01062684 84.22518246 -24.125 86.6875 C-23.40054688 87.65042969 -22.67609375 88.61335938 -21.9296875 89.60546875 C-21.14851563 90.64316406 -20.36734375 91.68085938 -19.5625 92.75 C-17.94407364 94.98991817 -16.34758114 97.24518612 -14.75 99.5 C-9.88197244 106.33627327 -4.92416412 113.10460196 0.05078125 119.86328125 C1.42242251 121.72948612 2.79003448 123.59857025 4.15625 125.46875 C5.06247951 126.70834832 5.96872949 127.94793166 6.875 129.1875 C7.31956543 129.79634033 7.76413086 130.40518066 8.22216797 131.0324707 C10.69193656 134.40463773 13.19107864 137.75111966 15.7265625 141.07421875 C16.27256104 141.79230713 16.81855957 142.51039551 17.38110352 143.25024414 C18.43396638 144.63209688 19.49150794 146.01040158 20.55444336 147.38452148 C21.03276611 148.01302002 21.51108887 148.64151855 22.00390625 149.2890625 C22.42615479 149.83771973 22.84840332 150.38637695 23.28344727 150.95166016 C24.4375 152.75 24.4375 152.75 26.4375 157.75 C8.2875 157.75 -9.8625 157.75 -28.5625 157.75 C-29.5525 155.77 -30.5425 153.79 -31.5625 151.75 C-32.57967713 150.32080175 -33.64232223 148.92275987 -34.75 147.5625 C-37.28417592 144.38163604 -39.74320133 141.17169559 -42.125 137.875 C-45.95017366 132.58263645 -49.8136437 127.31933265 -53.6875 122.0625 C-54.27345947 121.26666504 -54.85941895 120.47083008 -55.46313477 119.65087891 C-58.1870429 115.95527077 -60.9207456 112.26816663 -63.68359375 108.6015625 C-66.35342498 105.04929201 -68.93756605 101.44265789 -71.5 97.8125 C-74.94220199 92.94686043 -78.48497601 88.21317019 -82.28515625 83.6171875 C-83.75342619 81.47090912 -84.50468613 80.37089522 -84.5625 77.75 C-83.20459945 75.60787373 -81.86782554 73.80367667 -80.25 71.875 C-79.30901091 70.70488039 -78.37027234 69.532948 -77.43359375 68.359375 C-76.95132324 67.75931641 -76.46905273 67.15925781 -75.97216797 66.54101562 C-73.81891274 63.80525526 -71.81425277 60.97251713 -69.8125 58.125 C-64.12004877 50.07932098 -58.25785472 42.16117659 -52.39892578 34.23632812 C-50.55346297 31.73776481 -48.7116491 29.23655515 -46.87109375 26.734375 C-46.26426758 25.9096167 -45.65744141 25.0848584 -45.03222656 24.23510742 C-43.89453773 22.68862984 -42.75713826 21.14193931 -41.62011719 19.5949707 C-40.53172364 18.1165199 -39.41886192 16.65582449 -38.28442383 15.21240234 C-36.43248161 12.725399 -36.43248161 12.725399 -35.11206055 9.54150391 C-27.98068967 -3.99083859 -13.3319975 -0.54301315 0 0 Z " fill="#020202" transform="translate(235.5625,79.25)"/>
<path d="M0 0 C0.95264236 0.00888245 1.90528473 0.01776489 2.88679504 0.0269165 C3.96768906 0.02721863 5.04858307 0.02752075 6.16223145 0.02783203 C7.91078178 0.05879974 7.91078178 0.05879974 9.69465637 0.09039307 C11.48616875 0.09888275 11.48616875 0.09888275 13.31387329 0.10754395 C17.13521609 0.12996631 20.95562737 0.18017612 24.77668762 0.23101807 C27.36456472 0.25107537 29.9524565 0.26932747 32.5403595 0.28570557 C38.89028766 0.32985044 45.2396711 0.39682178 51.58918762 0.48101807 C49.76932834 4.26461113 47.48235729 7.58790661 45.02668762 10.98101807 C44.35851013 11.91023071 44.35851013 11.91023071 43.67683411 12.85821533 C40.15101903 17.74458611 36.54685883 22.5696723 32.91731262 27.37945557 C30.38741382 30.7498241 27.89034763 34.14266379 25.40168762 37.54351807 C21.70069653 42.5994952 17.99700481 47.65341189 14.28157043 52.6987915 C13.07691204 54.33585818 11.87441063 55.97451444 10.67414856 57.61480713 C8.06225194 61.17542608 5.43709011 64.70843748 2.66340637 68.14508057 C2.23366516 68.68560059 1.80392395 69.22612061 1.36116028 69.78302002 C0.24350967 71.17884245 -0.89338548 72.55919694 -2.03190613 73.93804932 C-3.64920775 76.43386512 -3.64920775 76.43386512 -3.39518738 79.44976807 C-2.22285493 83.05980768 -0.62800684 85.23031879 1.77668762 88.16851807 C2.68646113 89.30345968 3.59386906 90.44030018 4.49934387 91.57867432 C4.99321594 92.19629639 5.48708801 92.81391846 5.9959259 93.45025635 C8.99157544 97.26849307 11.84535413 101.19215617 14.71418762 105.10601807 C15.32157776 105.93254883 15.9289679 106.75907959 16.55476379 107.61065674 C20.18623051 112.55600107 23.80036627 117.51367827 27.40168762 122.48101807 C30.44838954 126.65935212 33.5198587 130.8192911 36.58918762 134.98101807 C37.80015289 136.62552887 39.01109101 138.27005966 40.22200012 139.91461182 C42.23040591 142.64143054 44.24452675 145.36367509 46.26887512 148.07867432 C47.35555481 149.54627197 47.35555481 149.54627197 48.46418762 151.04351807 C49.0803595 151.86980713 49.69653137 152.69609619 50.33137512 153.54742432 C51.58918762 155.48101807 51.58918762 155.48101807 51.58918762 157.48101807 C44.0461323 157.76071721 36.50441926 157.95286987 28.95735168 158.08526611 C26.39239034 158.14047009 23.82777341 158.21545478 21.26399231 158.31085205 C17.56944388 158.4448475 13.87947834 158.50677718 10.18293762 158.55523682 C9.04304382 158.61201096 7.90315002 158.6687851 6.72871399 158.72727966 C1.74542353 158.73111146 -1.20025654 158.65613818 -4.87538147 155.08859253 C-6.91702901 152.29802755 -8.68718115 149.47572726 -10.41081238 146.48101807 C-11.29074358 145.23853599 -12.18424669 144.00520336 -13.10612488 142.79351807 C-13.50468689 142.24985596 -13.9032489 141.70619385 -14.31388855 141.14605713 C-14.71712341 140.59659424 -15.12035828 140.04713135 -15.53581238 139.48101807 C-15.98609802 138.86710205 -16.43638367 138.25318604 -16.90031433 137.6206665 C-20.79163532 132.31820714 -24.69483907 127.0245341 -28.59831238 121.73101807 C-32.88908241 115.9119735 -37.16705039 110.08448287 -41.41081238 104.23101807 C-44.4154548 100.09963474 -47.44123306 95.98377178 -50.46818542 91.86871338 C-53.48380903 87.76369921 -56.45774028 83.63128156 -59.41081238 79.48101807 C-57.88384556 76.15716606 -55.95806849 73.35668918 -53.78581238 70.41851807 C-53.06780457 69.44269775 -52.34979675 68.46687744 -51.61003113 67.46148682 C-50.88428894 66.47793213 -50.15854675 65.49437744 -49.41081238 64.48101807 C-48.13858593 62.73203058 -46.86773765 60.98203973 -45.59831238 59.23101807 C-41.02415298 52.9415489 -36.42265933 46.67222644 -31.82096863 40.40289307 C-30.46472818 38.55449888 -29.1094426 36.70540947 -27.75456238 34.85601807 C-22.48309843 27.66130028 -17.20091038 20.47454763 -11.91081238 13.29351807 C-11.01108704 12.07197021 -11.01108704 12.07197021 -10.09318542 10.82574463 C-9.52768982 10.05843018 -8.96219421 9.29111572 -8.37956238 8.50054932 C-7.8787616 7.82097168 -7.37796082 7.14139404 -6.86198425 6.44122314 C-6.38309753 5.79435547 -5.90421082 5.14748779 -5.41081238 4.48101807 C-4.99514511 3.78995468 -4.57947784 3.0988913 -4.1512146 2.3868866 C-2.41081238 0.48101807 -2.41081238 0.48101807 0 0 Z " fill="#030303" transform="translate(102.41081237792969,79.51898193359375)"/>
<path d="M0 0 C1.37562854 1.28965176 2.70766393 2.62689293 4 4 C4 4.66 4 5.32 4 6 C-14.15 6 -32.3 6 -51 6 C-50.67 5.34 -50.34 4.68 -50 4 C-48.35 4 -46.7 4 -45 4 C-45 3.67 -45 3.34 -45 3 C-30.48 3 -15.96 3 -1 3 C-0.67 2.01 -0.34 1.02 0 0 Z " fill="#3B3B3B" transform="translate(258,231)"/>
<path d="M0 0 C1.78938995 0.01273453 1.78938995 0.01273453 3.6149292 0.02572632 C7.42649499 0.0593231 11.23594824 0.13462297 15.046875 0.2109375 C17.63017779 0.24102858 20.21351373 0.26840586 22.796875 0.29296875 C29.13092956 0.35913553 35.46375139 0.45955016 41.796875 0.5859375 C40.43750415 3.4465266 39.15167031 5.44521449 36.796875 7.5859375 C37.126875 5.9359375 37.456875 4.2859375 37.796875 2.5859375 C21.626875 2.5859375 5.456875 2.5859375 -11.203125 2.5859375 C-11.533125 3.5759375 -11.863125 4.5659375 -12.203125 5.5859375 C-14.265625 6.2734375 -14.265625 6.2734375 -16.203125 6.5859375 C-12.95051447 -1.20415458 -7.69741422 -0.20539708 0 0 Z " fill="#2A2A2A" transform="translate(112.203125,79.4140625)"/>
<path d="M0 0 C0.66 0.33 1.32 0.66 2 1 C2 4.15081975 1.72101535 5.41847698 0 8 C-2.125 8.75 -2.125 8.75 -4 9 C-3.46930939 5.17902761 -2.50298434 2.93828597 0 0 Z " fill="#E9E9E9" transform="translate(210,151)"/>
<path d="M0 0 C3.34998521 1.11666174 3.79340222 1.74694925 5.6875 4.5625 C6.12449219 5.20316406 6.56148438 5.84382812 7.01171875 6.50390625 C7.33785156 6.99761719 7.66398437 7.49132812 8 8 C7.01 8.33 6.02 8.66 5 9 C1 4.25 1 4.25 1 2 C0.34 1.67 -0.32 1.34 -1 1 C-0.67 0.67 -0.34 0.34 0 0 Z " fill="#E3E3E3" transform="translate(77,207)"/>
<path d="M0 0 C0.66 1.32 1.32 2.64 2 4 C-0.40339772 6.76390737 -1.16263678 7.04065919 -5 8 C-3.35 5.36 -1.7 2.72 0 0 Z " fill="#DFDFDF" transform="translate(126,118)"/>
<path d="M0 0 C1.65 1.65 3.3 3.3 5 5 C3.33333333 5 1.66666667 5 0 5 C-0.5625 3.0625 -0.5625 3.0625 -1 1 C-0.67 0.67 -0.34 0.34 0 0 Z " fill="#191919" transform="translate(245,214)"/>
<path d="M0 0 C0.33 0.99 0.66 1.98 1 3 C-0.40445835 5.2636564 -2.1967913 7.0208685 -4 9 C-4.66 8.67 -5.32 8.34 -6 8 C-4.02 5.36 -2.04 2.72 0 0 Z " fill="#303030" transform="translate(184,112)"/>
</svg>
